simulation
nRows=55
nColumns=15
endheader
time  TH_x TH_y TH_z SC_y  SC_z  SC_x  AC_y  AC_z  AC_x  GH_y  GH_z  GH_yy  EL_x  PS_y
0.000000  0.000000  0.000000  0.000000  -22.586860  0.204392  -12.254713  60.849657  14.147406  -1.838264  8.161211  19.259389  21.797266  31.923817  102.717432
0.025253  0.000000  0.000000  0.000000  -22.588641  0.204877  -11.988745  60.792776  14.127398  -1.878284  8.219582  19.104042  21.792322  31.765171  102.343412
0.050505  0.000000  0.000000  0.000000  -22.599020  0.206408  -11.678816  60.721766  14.089656  -1.920742  8.303868  18.985085  21.657306  31.612346  102.126114
0.075758  0.000000  0.000000  0.000000  -22.619887  0.212080  -11.328950  60.641962  14.040247  -1.963302  8.404070  18.909185  21.406413  31.467107  102.046351
0.101010  0.000000  0.000000  0.000000  -22.653135  0.224986  -10.941607  60.558903  13.983850  -2.004347  8.510188  18.883012  21.053842  31.331215  102.084935
0.126263  0.000000  0.000000  0.000000  -22.700656  0.248217  -10.519677  60.478089  13.925487  -2.041949  8.612225  18.913236  20.613789  31.206434  102.222679
0.151515  0.000000  0.000000  0.000000  -22.764343  0.284868  -10.063902  60.405298  13.868260  -2.075160  8.700181  19.006526  20.100452  31.094527  102.440397
0.176768  0.000000  0.000000  0.000000  -22.846086  0.338032  -9.582993  60.345362  13.822151  -2.098856  8.764057  19.169551  19.528028  30.997258  102.718900
0.202020  0.000000  0.000000  0.000000  -22.947778  0.410800  -9.073183  60.304657  13.786229  -2.114135  8.793854  19.408981  18.910714  30.916390  103.039001
0.227273  0.000000  0.000000  0.000000  -23.071311  0.506268  -8.541145  60.288314  13.768572  -2.116669  8.779574  19.731484  18.262708  30.853686  103.381514
0.252525  0.000000  0.000000  0.000000  -23.218578  0.627526  -7.984578  60.302586  13.769399  -2.106605  8.711218  20.143730  17.598208  30.810909  103.727251
0.277778  0.000000  0.000000  0.000000  -23.391659  0.777295  -7.411815  60.352849  13.798187  -2.078870  8.578762  20.651981  16.930621  30.789600  104.058076
0.303030  0.000000  0.000000  0.000000  -23.595726  0.952194  -6.834042  60.450378  13.868253  -2.031457  8.371773  21.255861  16.260527  30.787662  104.372965
0.328283  0.000000  0.000000  0.000000  -23.838464  1.143882  -6.264667  60.611323  13.995911  -1.964931  8.079487  21.949596  15.578062  30.800043  104.684817
0.353535  0.000000  0.000000  0.000000  -24.127631  1.343871  -5.724516  60.851175  14.203919  -1.876392  7.691131  22.727253  14.873061  30.821603  105.006936
0.378788  0.000000  0.000000  0.000000  -24.470985  1.543677  -5.241033  61.184695  14.520919  -1.760235  7.195929  23.582901  14.135359  30.847204  105.352624
0.404040  0.000000  0.000000  0.000000  -24.876125  1.734853  -4.824769  61.628530  14.960914  -1.620502  6.583601  24.510637  13.354671  30.871678  105.734981
0.429293  0.000000  0.000000  0.000000  -25.343126  1.910770  -4.496933  62.184425  15.542533  -1.462257  5.867146  25.505917  12.515087  30.888510  106.157464
0.454545  0.000000  0.000000  0.000000  -25.861445  2.067371  -4.266795  62.836268  16.267260  -1.304673  5.092436  26.566116  11.592756  30.889285  106.609917
0.479798  0.000000  0.000000  0.000000  -26.419735  2.200792  -4.149325  63.565562  17.141565  -1.165652  4.307823  27.688753  10.563225  30.865441  107.081154
0.505051  0.000000  0.000000  0.000000  -27.006650  2.307170  -4.144728  64.355627  18.159072  -1.070599  3.561662  28.871348  9.402042  30.808420  107.559992
0.530303  0.000000  0.000000  0.000000  -27.610842  2.382645  -4.260592  65.188660  19.320098  -1.041431  2.902253  30.111414  8.084802  30.709674  108.035244
0.555556  0.000000  0.000000  0.000000  -28.221120  2.425855  -4.481561  66.049308  20.603239  -1.099681  2.357209  31.403891  6.605516  30.565897  108.495357
0.580808  0.000000  0.000000  0.000000  -28.826676  2.441696  -4.777580  66.922561  21.970977  -1.246175  1.902146  32.737255  5.004482  30.386954  108.927851
0.606061  0.000000  0.000000  0.000000  -29.416764  2.436039  -5.115767  67.793730  23.382093  -1.476561  1.504640  34.098979  3.329153  30.184746  109.320103
0.631313  0.000000  0.000000  0.000000  -29.980636  2.414750  -5.453436  68.649773  24.785490  -1.787630  1.132269  35.476540  1.626983  29.971173  109.659491
0.656566  0.000000  0.000000  0.000000  -30.507546  2.383697  -5.777334  69.472408  26.156827  -2.161373  0.752609  36.857410  -0.054575  29.758137  109.933391
0.681818  0.000000  0.000000  0.000000  -30.988998  2.348543  -6.052154  70.248654  27.452606  -2.587587  0.339803  38.229875  -1.673895  29.555049  110.132588
0.707071  0.000000  0.000000  0.000000  -31.427042  2.313986  -6.260154  70.973087  28.653251  -3.054037  -0.101236  39.586002  -3.216664  29.359653  110.263823
0.732323  0.000000  0.000000  0.000000  -31.826820  2.284442  -6.391713  71.641643  29.749151  -3.546771  -0.556594  40.918970  -4.676559  29.166279  110.338509
0.757576  0.000000  0.000000  0.000000  -32.193468  2.264327  -6.444291  72.248503  30.737600  -4.049105  -1.012353  42.221958  -6.047260  28.969259  110.368058
0.782828  0.000000  0.000000  0.000000  -32.532126  2.258057  -6.407432  72.788871  31.608579  -4.547252  -1.454598  43.488143  -7.322447  28.762922  110.363883
0.808081  0.000000  0.000000  0.000000  -32.847611  2.269451  -6.277029  73.257613  32.357974  -5.026405  -1.870604  44.711456  -8.496882  28.541772  110.336887
0.833333  0.000000  0.000000  0.000000  -33.141809  2.296883  -6.062732  73.656963  32.992230  -5.477213  -2.258500  45.892681  -9.575199  28.301878  110.293335
0.858586  0.000000  0.000000  0.000000  -33.415039  2.335822  -5.785328  73.992725  33.527115  -5.892819  -2.622202  47.036262  -10.567302  28.040148  110.237015
0.883838  0.000000  0.000000  0.000000  -33.667608  2.381710  -5.454835  74.273109  33.968108  -6.271082  -2.965686  48.146673  -11.483140  27.753499  110.171693
0.909091  0.000000  0.000000  0.000000  -33.899823  2.429989  -5.099881  74.503287  34.338612  -6.604578  -3.292923  49.228392  -12.332667  27.438845  110.101134
0.934343  0.000000  0.000000  0.000000  -34.112009  2.476247  -4.723829  74.693187  34.638062  -6.894596  -3.607810  50.285504  -13.125634  27.093470  110.029042
0.959596  0.000000  0.000000  0.000000  -34.304930  2.519065  -4.338562  74.847924  34.881240  -7.136974  -3.912660  51.314131  -13.867731  26.722144  109.957876
0.984848  0.000000  0.000000  0.000000  -34.479752  2.559812  -3.939885  74.972464  35.074110  -7.330115  -4.208312  52.302958  -14.560857  26.336624  109.888934
1.010101  0.000000  0.000000  0.000000  -34.637658  2.599968  -3.521236  75.072238  35.220576  -7.473179  -4.495548  53.240386  -15.206765  25.948938  109.823467
1.035354  0.000000  0.000000  0.000000  -34.779832  2.641010  -3.080283  75.152032  35.328603  -7.564068  -4.775150  54.114816  -15.807206  25.571111  109.762727
1.060606  0.000000  0.000000  0.000000  -34.907494  2.684401  -2.611538  75.217337  35.403014  -7.601805  -5.047894  54.914734  -16.364002  25.215120  109.707961
1.085859  0.000000  0.000000  0.000000  -35.024528  2.730530  -2.108453  75.276315  35.442994  -7.591068  -5.314336  55.634492  -16.883595  24.889422  109.660016
1.111111  0.000000  0.000000  0.000000  -35.139137  2.778042  -1.607818  75.333250  35.482151  -7.531617  -5.574661  56.277975  -17.379941  24.596761  109.619090
1.136364  0.000000  0.000000  0.000000  -35.259924  2.825422  -1.101846  75.400857  35.510258  -7.437829  -5.829024  56.849938  -17.867682  24.339357  109.585324
1.161616  0.000000  0.000000  0.000000  -35.395488  2.871154  -0.618193  75.485463  35.551336  -7.312975  -6.077578  57.355137  -18.361460  24.119433  109.558856
1.186869  0.000000  0.000000  0.000000  -35.554426  2.913724  -0.159724  75.597883  35.605384  -7.167982  -6.320474  57.798328  -18.875911  23.939206  109.539829
1.212121  0.000000  0.000000  0.000000  -35.741457  2.952012  0.257905  75.740447  35.685176  -7.008163  -6.555266  58.183023  -19.417940  23.799191  109.530104
1.237374  0.000000  0.000000  0.000000  -35.949950  2.986050  0.643060  75.901526  35.781501  -6.841275  -6.771908  58.509100  -19.971827  23.694916  109.536582
1.262626  0.000000  0.000000  0.000000  -36.171206  3.016082  1.006817  76.066582  35.882804  -6.674981  -6.958968  58.775776  -20.517740  23.620998  109.567080
1.287879  0.000000  0.000000  0.000000  -36.396529  3.042350  1.358200  76.220623  35.979584  -6.516238  -7.105018  58.982268  -21.035845  23.572056  109.629416
1.313131  0.000000  0.000000  0.000000  -36.617221  3.065096  1.709795  76.349179  36.058929  -6.372972  -7.198628  59.127790  -21.506307  23.542710  109.731406
1.338384  0.000000  0.000000  0.000000  -36.825002  3.084702  2.070284  76.439799  36.109628  -6.251052  -7.231636  59.213468  -21.910544  23.527550  109.875943
1.363636  0.000000  0.000000  0.000000  -37.013867  3.102307  2.432968  76.492534  36.123667  -6.147101  -7.213853  59.250904  -22.236843  23.521015  110.038851
